/* XPM */
static char *result[] = {
/* columns rows colors chars-per-pixel */
"64 64 83 1 ",
"  c #000000",
". c #090204",
"X c #0F0708",
"o c #100709",
"O c #130D0E",
"+ c #141213",
"@ c #1A1516",
"# c #1D1A1A",
"$ c #211E1E",
"% c #251F20",
"& c #252122",
"* c #2A2627",
"= c #2C2728",
"- c #2C2A2A",
"; c #312F2D",
": c #353232",
"> c #3A3636",
", c #3A3738",
"< c #3D3939",
"1 c #423E3E",
"2 c #454141",
"3 c #4A4646",
"4 c #4E4A4A",
"5 c #514D4D",
"6 c #565252",
"7 c #5A5656",
"8 c #5D5959",
"9 c #625E5E",
"0 c #656262",
"q c #6A6565",
"w c #6D6A69",
"e c #726D6D",
"r c #73706F",
"t c #767271",
"y c #7A7575",
"u c #7B7877",
"i c #7D7979",
"p c #817D7C",
"a c #84807F",
"s c #868281",
"d c #8A8685",
"f c #8D8887",
"g c #8E8A89",
"h c #928D8D",
"j c #94908F",
"k c #969191",
"l c #9A9494",
"z c #9D9897",
"x c #9D9998",
"c c #A29E9D",
"v c #A5A09F",
"b c #A6A2A1",
"n c #A9A5A5",
"m c #ACA8A7",
"M c #AEAAA9",
"N c #B2ADAC",
"B c #B4B0AF",
"V c #B6B2B1",
"C c #BAB5B4",
"Z c #BDB8B7",
"A c #BEBAB9",
"S c #C2BDBC",
"D c #C5C0BF",
"F c #C7C2C1",
"G c #CAC5C4",
"H c #CDC8C7",
"J c #CEC9C8",
"K c #D2CDCC",
"L c #D5D0CE",
"P c #D7D2D1",
"I c #DAD5D3",
"U c #DED9D7",
"Y c #E3DDDC",
"T c #E6E0DF",
"R c #EAE5E3",
"E c #EFE9E7",
"W c #F0EAE7",
"Q c #F2ECEA",
"! c #F6F0EE",
"~ c #F8F1EF",
"^ c #F8F2F0",
"/ c #FFF9F6",
"( c None",
/* pixels */
"((((((((((((((((((((((((((((((((((((((((((((((((((((((((((((((((",
"((((((((((((((((((((((((((((((((((((((((((((((((((((((((((((((((",
"((((((((((((((((((((((((((((((((((((((((((((((((((((((((((((((((",
"((((((((((((((((((((((((((((((((((((((((((((((((((((((((((((((((",
"((((((((((((((((((((((((((((((((((((((((((((((((((((((((((((((((",
"((((((((((((((((((((((((((((((((((((((((((((((((((((((((((((((((",
"((((((((((((<:@   ((((((((((((((((((((((((((   @:<((((((((((((((",
"((((((((((((;59ygu((((((((((((((((((((((((((ugy05;((((((((((((((",
"((((((((((((O0kZUFq (((((((((((((((((((((( qFIAk0O((((((((((((((",
"(((((((((((( wbKQEB0((((((((((((((((((((((0BWQKbw ((((((((((((((",
"(((((((((((( wcHRQRSw (((((((((((((((((( eSRQRHcq ((((((((((((((",
"(((((((((((( qcHYQ/Rv,((((((((((((((((((,cY/~YGcw ((((((((((((((",
"(((((((((((( wbHTQ^YAs6 (((((((((((((( 6sAY!QTHbw ((((((((((((((",
"((((((((((((.0lDYQQRIVp$(((((((((((((($pVIRQQTSl0.((((((((((((((",
"((((((((((((&8yNY~QEEKh1:+((((((((((+:1hKEEQ^YNy8&((((((((((((((",
"((((((((((((-25kKEEQ^YAge<((((((((((<whZT~QEWKl52-((((((((((((((",
"((((((((((((((=uVPRQQETGk52-((((((-26kHREQQRIBy*((((((((((((((((",
"(((((((((((((( 8hAYQQQ^YNy7#((((((#6tMT^QWQYAh8 ((((((((((((((((",
"(((((((((((((($7yNY!QQ!YAg5 #----# 5gSYQWQ!YNy7$((((((((((((((((",
"((((((((((((((-25lKEEQQRPNs66455466sNPRQQEEKl52-((((((((((((((((",
"((((((((((((((((-pCIRQQERPCkuqweqykCPREEQRICp-((((((((((((((((((",
"(((((((((((((((( 6dCIEEQ!RHMxgjghzNHR!QEEICd6 ((((((((((((((((((",
"((((((((((((((((((4gCIRQ!TFNMMMMMMMFY!!RICg4((((((((((((((((((((",
"(((((((((((((((((( 4dVPEQTDNCCZZCCNDRQRPVd4 ((((((((((((((((((((",
"((((((((((((((((((((3pMKERFNVCCVCVMFEEJma3((((((((((((((((((((((",
"(((((((((((((((((((( wmJYUSNVVVVVVNSUYKmw ((((((((((((((((((((((",
"((((((((((((((((((-24lPRJAVMMMMMNNMVAJRPl41-((((((((((((((((((((",
"((((((((((((((((((&8uMUYAMAFFFFFFDFAMAYUMu8&((((((((((((((((((((",
"((((((((((((((((((.0xCDDVZIRURTTYRRIZMFFCxq.((((((((((((((((((((",
"(((((((((((((((((( wmAMBZJR!QQQQQQQRJZVMAmw ((((((((((((((((((((",
"((((((((((((((((,;oqnZMZIREQEQEQEEQERIZmZbqo:,((((((((((((((((((",
"((((((((((((((((,,OqbAAKR!EEEEEEEEEQ!RJASb0O<:((((((((((((((((((",
"((((((((((((((((-;.qbFUREEEEQEEEEEEEEERUHv0.--((((((((((((((((((",
"((((((((((((((((43@8kDT~QEEEEEEEEEEEEQ!RDk8#34((((((((((((((((((",
"((((((((((((((-3wq%<tNT^QQEEEEEEEEEEQQ!YNt<&qq4-((((((((((((((((",
"(((((((((((((($9dhe86hKRTTEQEEEEEEQERRRKh68wgf9$((((((((((((((((",
"(((((((((((((( 0cNng20BJDJTQEEEEEEERJDHV02gnNcq ((((((((((((((((",
"((((((((((((((:ynDJCy0kmnSTQQEEEEEQYAnnk0yCJSnt:((((((((((((((((",
"((((((((((((*3qdcDUUBhpdbFTQEEEEEQQRFbdigVIYSvd04*((((((((((((((",
"((((((((((((=6elNLEELAvxnFTQQEEEEEQYFnxbZIEQKVle6-((((((((((((((",
"((((((((((((-49xLEEERYYKBAYQEEEEEEQYCVKYYREEEKz94-((((((((((((((",
"((((((((((((&6eMY!QEQQ!RJGTQEEEEEQQRHHR!QQEQ^YMe6&((((((((((((((",
"((((((((((((O9gAYQEEEQQETTEQEEEQEEEERYEQEQEEQYSh9o((((((((((((((",
"(((((((((((( tVPRQQQEEEEQQEEEEEEEEEEQQEEEEEQQRPNt ((((((((((((((",
"(((((((((((( aKQEQQQEEEEEEEEEEEEEEEEQEEEEEQ!QQQPa ((((((((((((((",
"(((((((((((( dLQQRYYEQEEEEEEEEEEEEEEEEEEEEUYRQQKs ((((((((((((((",
"(((((((((((( yCUQTNNY!EEEEEEEEEWEEEEEEEQ!YNNTQUCy ((((((((((((((",
"(((((((((((( 8dCYKppJEEEEEEEEEEWEEEEEEQEEJppKYCd8 ((((((((((((((",
"((((((((((((((5gSCq0NPRQWEEEWWWWEEEEWWQTPN0qZDg5((((((((((((((((",
"(((((((((((((( 6zz53gAYQQEWWQWWEWWWWWW!YAg35lx6 ((((((((((((((((",
"((((((((((((<- 1pp33tNY~QEQQ~QQQ~~QQWE~YNt23ii1 -<((((((((((((((",
"((((((((((((>48epp5:5hKEWWRYIIYYIUYREEEKl4>4idw84:((((((((((((((",
"((((((((((((@0hbml7 &tNIQQIAblkkknSLQQINt& 8kmbh0@((((((((((((((",
"(((((((((((( tZLKCy* 6hZIKNhpphhpagNLISf6 *yCKLAy ((((((((((((((",
"(((((((((((( gI^~Ic7>5pzvk99hCLLCh90kclp4,7xU!~If ((((((((((((((",
"(((((((((((( uGRYHz921qeq93iNIQQINi39qeq229zHTRGu ((((((((((((((",
"((((((((((((((ijgp031155<0hAIREQRIZhq<541140pgji((((((((((((((((",
"((((((((((((((    +:,,-# 9xGR^QQ~RGz9 %-:,:+    ((((((((((((((((",
"(((((((((((((((((((((((($7yBR/!^/TBi7$((((((((((((((((((((((((((",
"((((((((((((((((((((((((-26hGUIIYFh62-((((((((((((((((((((((((((",
"((((((((((((((((((((((((((2qpfddfiq2((((((((((((((((((((((((((((",
"((((((((((((((((((((((((((;@      @;((((((((((((((((((((((((((((",
"((((((((((((((((((((((((((((((((((((((((((((((((((((((((((((((((",
"(((((((((((((((((((((((((((((((((((((((((((((((((((((((((((((((("
};
