/* XPM */
static char *result[] = {
/* columns rows colors chars-per-pixel */
"64 64 158 2 ",
"   c black",
".  c #130C0E",
"X  c #000015",
"o  c #1B1516",
"O  c #151212",
"+  c #221E1F",
"@  c #00022C",
"#  c #001F2C",
"$  c #241E20",
"%  c #002336",
"&  c #14263C",
"*  c #262324",
"=  c #292425",
"-  c #2D2A2A",
";  c #312D2E",
":  c #343031",
">  c #3A3636",
",  c #3A3738",
"<  c #3D3A3B",
"1  c #523800",
"2  c #4C3124",
"3  c #413C3D",
"4  c #664D3E",
"5  c #6A5932",
"6  c #3D3C40",
"7  c #454242",
"8  c #4B4747",
"9  c #4B4749",
"0  c #4D4A4A",
"q  c #584C47",
"w  c #534D4D",
"e  c #52504F",
"r  c #565251",
"t  c #5A5656",
"y  c #5D5A5A",
"u  c #664E42",
"i  c #615E5E",
"p  c #785E50",
"a  c #6F6249",
"s  c #6D635F",
"d  c #706057",
"f  c #565E63",
"g  c #5E6164",
"h  c #656262",
"j  c #6A6565",
"k  c #6B6867",
"l  c #6D6768",
"z  c #6D6A6A",
"x  c #706661",
"c  c #716D6D",
"v  c #796B63",
"b  c #73706F",
"n  c #6F7274",
"m  c #757171",
"M  c #7A7675",
"N  c #7B7877",
"B  c #7D7979",
"V  c #9D6F54",
"C  c #877B6A",
"Z  c #887564",
"A  c #947765",
"S  c #827E7D",
"D  c #B9983D",
"F  c #A68A45",
"G  c #B79743",
"H  c #84807F",
"J  c #BD8F73",
"K  c #B0927F",
"L  c #C09276",
"P  c #C2987F",
"I  c #868282",
"U  c #898584",
"Y  c #8C8887",
"T  c #87878B",
"R  c #8A8788",
"E  c #8E8989",
"W  c #928D8C",
"Q  c #94908F",
"!  c #8E8D90",
"~  c #969292",
"^  c #9A9594",
"/  c #9E9A99",
"(  c #A89488",
")  c #BF9B85",
"_  c #A29E9D",
"`  c #A5A09F",
"'  c #A6A1A1",
"]  c #A9A6A5",
"[  c #ABA8A7",
"{  c #AEAAA9",
"}  c #B5AAA5",
"|  c #BBA9A0",
" . c #B2ADAD",
".. c #BBAFA9",
"X. c #B4B0AF",
"o. c #B7B2B1",
"O. c #BAB6B4",
"+. c #BEB9B7",
"@. c #BEBAB9",
"#. c #C8A088",
"$. c #D2A88B",
"%. c #D8A88B",
"&. c #C9B288",
"*. c #C8A692",
"=. c #CEAA94",
"-. c #C3A898",
";. c #CCAE9B",
":. c #D2AC94",
">. c #D6B097",
",. c #D5B19A",
"<. c #DAB49C",
"1. c #CFB1A2",
"2. c #D1B4A2",
"3. c #DAB7A0",
"4. c #DBBDAB",
"5. c #DBB9A3",
"6. c #C1B7B2",
"7. c #C5BBB6",
"8. c #C2BDBC",
"9. c #E3BDA6",
"0. c #DDC392",
"q. c #E2C795",
"w. c #DDC0AF",
"e. c #C5C0BE",
"r. c #DFC9BD",
"t. c #DEC2B2",
"y. c #C6C2C1",
"u. c #CAC5C3",
"i. c #CDC9C7",
"p. c #CECAC9",
"a. c #D1CCCB",
"s. c #D5D0CF",
"d. c #DED1CB",
"f. c #D7D2D0",
"g. c #DBD6D4",
"h. c #DED8D6",
"j. c #DFDBD9",
"k. c #E2D7D1",
"l. c #E5DBD5",
"z. c #EADFD4",
"x. c #E3DDDC",
"c. c #E9DDD9",
"v. c #E6E1DF",
"b. c #EFE2DD",
"n. c #EBE0D4",
"m. c #E6E2E1",
"M. c #EAE5E3",
"N. c #EEE9E7",
"B. c #F0E5E1",
"V. c #F5E9E4",
"C. c #F2ECEB",
"Z. c #F9EEE9",
"A. c #F7F1EF",
"S. c #F8F1EF",
"D. c #FAF4F2",
"F. c #FFF9F7",
"G. c #FFFBF9",
"H. c None",
/* pixels */
"H.H.H.H.H.H.H.H.H.H.H.H.H.H.H.H.H.H.H.H.H.H.H.H.H.H.H.H.H.H.H.H.H.H.H.H.H.H.H.H.H.H.H.H.H.H.H.H.H.H.H.H.H.H.H.H.H.H.H.H.H.H.H.H.",
"H.H.H.H.H.H.H.H.H.H.H.H.H.H.H.H.H.H.H.H.H.H.H.H.H.H.H.H.H.H.H.H.H.H.H.H.H.H.H.H.H.H.H.H.H.H.H.H.H.H.H.H.H.H.H.H.H.H.H.H.H.H.H.H.",
"H.H.H.H.H.H.H.H.H.H.H.H.H.H.H.H.H.H.H.H.H.H.H.H.H.H.H.H.H.H.H.H.H.H.H.H.H.H.H.H.H.H.H.H.H.H.H.H.H.H.H.H.H.H.H.H.H.H.H.H.H.H.H.H.",
"H.H.H.H.H.H.H.H.H.H.H.H.H.H.H.H.H.H.H.H.H.H.H.H.H.H.H.H.H.H.H.H.H.H.H.H.H.H.H.H.H.H.H.H.H.H.H.H.H.H.H.H.H.H.H.H.H.H.H.H.H.H.H.H.",
"H.H.H.H.H.H.H.H.H.H.H.H.H.H.H.H.H.H.H.H.H.H.H.H.H.H.H.H.H.H.H.H.H.H.H.H.H.H.H.H.H.H.H.H.H.H.H.H.H.H.H.H.H.H.H.H.H.H.H.H.H.H.H.H.",
"H.H.H.H.H.H.H.H.H.H.H.H.H.H.H.H.H.H.H.H.H.H.H.H.H.H.H.H.H.H.H.H.H.H.H.H.H.H.H.H.H.H.H.H.H.H.H.H.H.H.H.H.H.H.H.H.H.H.H.H.H.H.H.H.",
"H.H.H.H.H.H.H.H.H.H.H.H.< : o       H.H.H.H.H.H.H.H.H.H.H.H.H.H.H.H.H.H.H.H.H.H.H.H.H.H.      o : 3 H.H.H.H.H.H.H.H.H.H.H.H.H.H.",
"H.H.H.H.H.H.H.H.H.H.H.H.: 0 i m Y N H.H.H.H.H.H.H.H.H.H.H.H.H.H.H.H.H.H.H.H.H.H.H.H.H.H.N Y m f w ; H.H.H.H.H.H.H.H.H.H.H.H.H.H.",
"H.H.H.H.H.H.H.H.H.H.H.H.o i E o.g.y.h   H.H.H.H.H.H.H.H.H.H.H.H.H.H.H.H.H.H.H.H.H.H.  h y.g.o.E i o H.H.H.H.H.H.H.H.H.H.H.H.H.H.",
"H.H.H.H.H.H.H.H.H.H.H.H.  m  .h.D.N.o.i H.H.H.H.H.H.H.H.H.H.H.H.H.H.H.H.H.H.H.H.H.H.h o.N.D.g.X.c   H.H.H.H.H.H.H.H.H.H.H.H.H.H.",
"H.H.H.H.H.H.H.H.H.H.H.H.  S a.C.D.C.m.8.z   H.H.H.H.H.H.H.H.H.H.H.H.H.H.H.H.H.H.  c 8.m.C.A.C.a.S   H.H.H.H.H.H.H.H.H.H.H.H.H.H.",
"H.H.H.H.H.H.H.H.H.H.H.H.  R j.Z.c.c.D.m.' > H.H.H.H.H.H.H.H.H.H.H.H.H.H.H.H.H.H.> ` M.D.c.c.Z.j.R   H.H.H.H.H.H.H.H.H.H.H.H.H.H.",
"H.H.H.H.H.H.H.H.H.H.H.H.  R j.M.1.1.M.N.8.I r   H.H.H.H.            H.H.H.H.  r I @.M.B.1.1.B.j.R   H.H.H.H.H.H.H.H.H.H.H.H.H.H.",
"H.H.H.H.H.H.H.H.H.H.H.H.  R x.b.#.) d.x.f.O.S + H.H.H.H.i B R R B i H.H.H.H.+ S O.g.m.d.) #.M.x.Y   H.H.H.H.H.H.H.H.H.H.H.H.H.H.",
"H.H.H.H.H.H.H.H.H.H.H.H.  ~ m.Z.4.*.6.p.M.f.Q 3 : O   h ~ 8.k.k.8.~ h   O : 3 W g.m.p.6.*.4.Z.m.W   H.H.H.H.H.H.H.H.H.H.H.H.H.H.",
"H.H.H.H.H.H.H.H.H.H.H.H.  N y.k.w.,.| 7.c.x.O.W l , o h / u.x.c.y._ h o , l W O.l.x.8.| ,.4.k.u.N   H.H.H.H.H.H.H.H.H.H.H.H.H.H.",
"H.H.H.H.H.H.H.H.H.H.H.H.H.H.n ( ;.5.2.2.4.r.l.p.W w - 0 S / _ _ _ S w - w ~ p.l.r.4.2.2.5.;.( n H.H.H.H.H.H.H.H.H.H.H.H.H.H.H.H.",
"H.H.H.H.H.H.H.H.H.H.H.H.H.H.  4 ) 3.<.,.$.w.V.m. .M y w h l i i j h w t m  .m.V.w.$.,.<.<.) u   H.H.H.H.H.H.H.H.H.H.H.H.H.H.H.H.",
"H.H.H.H.H.H.H.H.H.H.H.H.H.H.X p J %.,.,.:.t.C.M.@.~ I j 8 = ; ; = 8 l I ^ 8.m.C.w.:.,.,.%.J p X H.H.H.H.H.H.H.H.H.H.H.H.H.H.H.H.",
"H.H.H.H.H.H.H.H.H.H.H.H.H.H.# u V J :.5.,.4.k.x.s.o.W j i i i i i i h W O.a.x.l.4.,.5.:.J V u # H.H.H.H.H.H.H.H.H.H.H.H.H.H.H.H.",
"H.H.H.H.H.H.H.H.H.H.H.H.H.H.H.H.2 A =.9.<.2.7.p.v.a.m 3 E ` / _ _ W 3 m a.v.p.7.2.<.9.=.A 2 H.H.H.H.H.H.H.H.H.H.H.H.H.H.H.H.H.H.",
"H.H.H.H.H.H.H.H.H.H.H.H.H.H.H.H.% s K =.,.2.} e.N.x.U z o.p.i.i.a.o.z U x.C.@.} 2.,.:.( s % H.H.H.H.H.H.H.H.H.H.H.H.H.H.H.H.H.H.",
"H.H.H.H.H.H.H.H.H.H.H.H.H.H.- 8 h l q A =.4...y.M.v.{ [ f.m.v.v.M.f.' } v.m.e...4.=.A q l j 9 - H.H.H.H.H.H.H.H.H.H.H.H.H.H.H.H.",
"H.H.H.H.H.H.H.H.H.H.H.H.H.H.+ i Y R f s ( -.} y.m.M.a.a.M.S.C.C.A.M.a.p.M.m.y.} -.K s f R R i $ H.H.H.H.H.H.H.H.H.H.H.H.H.H.H.H.",
"H.H.H.H.H.H.H.H.H.H.H.H.H.H.  i ^ [ [ ~ d v ' i.m.C.m.v.N.N.C.N.C.N.m.m.Z.m.p.' v d ~ ] [ ^ i   H.H.H.H.H.H.H.H.H.H.H.H.H.H.H.H.",
"H.H.H.H.H.H.H.H.H.H.H.H.H.H.= S O.i.y.[ z f ^ 8.g.N.C.Z.C.N.N.N.N.N.C.C.N.g.@.~ g z [ y.p.O.B = H.H.H.H.H.H.H.H.H.H.H.H.H.H.H.H.",
"H.H.H.H.H.H.H.H.H.H.H.H.- 7 w ~ a.x.e. .] / W ^ O.f.N.Z.N.N.N.N.N.C.Z.N.f.O./ E / [  .y.x.f.~ w 7 - H.H.H.H.H.H.H.H.H.H.H.H.H.H.",
"H.H.H.H.H.H.H.H.H.H.H.H.* t M  .m.C.y. .8. .I M ! X.f.M.N.C.C.N.C.N.m.f. .W m R  .8. .y.N.v. .M t * H.H.H.H.H.H.H.H.H.H.H.H.H.H.",
"H.H.H.H.H.H.H.H.H.H.H.H.. h W 8.m.M.y. .8. .E l t B { f.M.A.C.C.A.m.s. .B t l Y  .@. .y.m.v.8.W h . H.H.H.H.H.H.H.H.H.H.H.H.H.H.",
"H.H.H.H.H.H.H.H.H.H.H.H.  c X.f.N.b.y. .} ' ^ M = 9 ~ y.g.m.v.v.m.g.e.~ 0 = M ^ ] [  .y.m.N.f. .c   H.H.H.H.H.H.H.H.H.H.H.H.H.H.",
"H.H.H.H.H.H.H.H.H.H.H.H.  S p.C.C.m.p.[ ! E ' ~ 8 r _ +.@.@.8.@.8.@.@._ w 8 ~ ' E W } i.v.C.C.a.S   H.H.H.H.H.H.H.H.H.H.H.H.H.H.",
"H.H.H.H.H.H.H.H.H.H.H.H.  R h.D.Z.j.O.~ I ^ 8.+.z y ' +.@.@.@.8.8.@.@.' y z +.8.^ I ~ O.x.S.D.g.R   H.H.H.H.H.H.H.H.H.H.H.H.H.H.",
"H.H.H.H.H.H.H.H.H.H.H.H.  U g.D.A.g.R h W +.x.s.W c / @.g.m.m.j.v.g.@./ z E f.l.@.E s E g.A.D.g.I   H.H.H.H.H.H.H.H.H.H.H.H.H.H.",
"H.H.H.H.H.H.H.H.H.H.H.H.  U g.D.D.s.k 3 [ g.C.v.' ! o.s.M.A.C.A.D.m.f.o.~ ] v.C.g.{ < j f.A.D.g.I   H.H.H.H.H.H.H.H.H.H.H.H.H.H.",
"H.H.H.H.H.H.H.H.H.H.H.H.  R h.D.D.s.k h p.C.C.x.o. .j.Z.A.C.A.C.Z.A.C.h. .X.j.A.C.p.h z f.A.F.j.Y   H.H.H.H.H.H.H.H.H.H.H.H.H.H.",
"H.H.H.H.H.H.H.H.H.H.H.H.  S p.C.A.s.h s a.C.C.v.a.u.f.g.z.x.n.n.n.l.h.f.u.p.m.C.C.p.h k f.A.N.p.H   H.H.H.H.H.H.H.H.H.H.H.H.H.H.",
"H.H.H.H.H.H.H.H.H.H.H.H.  M o.g.C.s.i - [ h.m.C.N.p.T Z &.q.0.0.0.&.Z T p.N.C.M.g.} ; i f.C.h.X.M   H.H.H.H.H.H.H.H.H.H.H.H.H.H.",
"H.H.H.H.H.H.H.H.H.H.H.H.  y R @.m.v.` m R o.x.D.D.l.! a F D G G G F a ~ j.D.D.l.X.Y m / x.m.@.R y   H.H.H.H.H.H.H.H.H.H.H.H.H.H.",
"H.H.H.H.H.H.H.H.H.H.H.H.H.H., / v.S.v.@.i M j.F.D.C.m.y.C 1 5 5 1 C 8.m.C.D.F.h.M i 8.v.S.v./ , H.H.H.H.H.H.H.H.H.H.H.H.H.H.H.H.",
"H.H.H.H.H.H.H.H.H.H.H.H.H.H.  c 8.N.D.v.~ S 8.g.g.x.C.g.! & @ @ & ! g.C.x.g.g.e.S ~ v.D.M.e.c   H.H.H.H.H.H.H.H.H.H.H.H.H.H.H.H.",
"H.H.H.H.H.H.H.H.H.H.H.H.< -   7 S O.M.Z.x.8.I z W  .y.i.O.~ 6 6 ~ O.u.u. .W z I 8.v.S.M.+.B 7   - < H.H.H.H.H.H.H.H.H.H.H.H.H.H.",
"H.H.H.H.H.H.H.H.H.H.H.H.: 0 y z c ^ i.M.D.m.^ w r c W ' [ / c b / { ' E c r w ^ x.D.M.i.^ z l y 0 : H.H.H.H.H.H.H.H.H.H.H.H.H.H.",
"H.H.H.H.H.H.H.H.H.H.H.H.o i ~ ' _ _ ^ +.m.Z.x.@.c   , 7 < j ~ ~ j < 7 <   c @.x.Z.b.O.^ ' ' ' W h o H.H.H.H.H.H.H.H.H.H.H.H.H.H.",
"H.H.H.H.H.H.H.H.H.H.H.H.  M O.a.a.O.m S p.C.D.c.~ 0 c M z W e.8.W z M n 0 Q x.F.C.a.H c O.a.a.+.M   H.H.H.H.H.H.H.H.H.H.H.H.H.H.",
"H.H.H.H.H.H.H.H.H.H.H.H.  W g.D.S.f.M y X.g.N.m.O.[ f.x.g.h.x.v.h.h.v.s.{ o.v.N.g. .y N f.A.D.g.R   H.H.H.H.H.H.H.H.H.H.H.H.H.H.",
"H.H.H.H.H.H.H.H.H.H.H.H.  N y.M.m.y.l ; S O.m.m.@.o.f.v.N.C.C.Z.C.m.v.s.o.@.b.v.O.I - z y.M.M.y.N   H.H.H.H.H.H.H.H.H.H.H.H.H.H.",
"H.H.H.H.H.H.H.H.H.H.H.H.H.H.B Q W N 0 ; , ^ x.m.' c m ~ O.h.Z.C.h.O.Q b c ' m.v.~ , - 0 B W Q B H.H.H.H.H.H.H.H.H.H.H.H.H.H.H.H.",
"H.H.H.H.H.H.H.H.H.H.H.H.H.H.        ; ;   m a.x.o.B , < I  .a.a.X.I < , S X.x.a.m   - :         H.H.H.H.H.H.H.H.H.H.H.H.H.H.H.H.",
"H.H.H.H.H.H.H.H.H.H.H.H.H.H.H.H.H.H.> >   j [ a.l.p.W e t j S N j t w W i.l.a. .k   > > H.H.H.H.H.H.H.H.H.H.H.H.H.H.H.H.H.H.H.H.",
"H.H.H.H.H.H.H.H.H.H.H.H.H.H.H.H.H.H.< ;   y ~ i.N.M. .m r o     o r m  .m.N.u.~ y   ; < H.H.H.H.H.H.H.H.H.H.H.H.H.H.H.H.H.H.H.H.",
"H.H.H.H.H.H.H.H.H.H.H.H.H.H.H.H.H.H.H.H.  8 ~ y.M.m.8.~ I h < , h I ~ 8.m.M.y.~ 8   H.H.H.H.H.H.H.H.H.H.H.H.H.H.H.H.H.H.H.H.H.H.",
"H.H.H.H.H.H.H.H.H.H.H.H.H.H.H.H.H.H.H.H.m / o.a.M.M.s.o.W i 7 7 s W o.f.N.m.s.o.^ m H.H.H.H.H.H.H.H.H.H.H.H.H.H.H.H.H.H.H.H.H.H.",
"H.H.H.H.H.H.H.H.H.H.H.H.H.H.H.H.H.H.  N e.v.x.v.N.N.C.a.I + > > $ I p.C.N.N.v.x.x.e.N   H.H.H.H.H.H.H.H.H.H.H.H.H.H.H.H.H.H.H.H.",
"H.H.H.H.H.H.H.H.H.H.H.H.H.H.H.H.H.H.  W v.G.S.C.C.C.D.g.S   = =   S g.D.C.C.C.A.G.m.W   H.H.H.H.H.H.H.H.H.H.H.H.H.H.H.H.H.H.H.H.",
"H.H.H.H.H.H.H.H.H.H.H.H.H.H.H.H.H.H.  Q v.G.S.S.S.D.F.x.W   H.H.  W x.F.D.A.A.D.F.v.Q   H.H.H.H.H.H.H.H.H.H.H.H.H.H.H.H.H.H.H.H.",
"H.H.H.H.H.H.H.H.H.H.H.H.H.H.H.H.H.H.  N e.x.g.g.g.g.x.y.M   H.H.  M y.x.g.g.g.h.x.e.N   H.H.H.H.H.H.H.H.H.H.H.H.H.H.H.H.H.H.H.H.",
"H.H.H.H.H.H.H.H.H.H.H.H.H.H.H.H.H.H.H.H.M W R U U Y W M H.H.H.H.H.H.M W R U I U W M H.H.H.H.H.H.H.H.H.H.H.H.H.H.H.H.H.H.H.H.H.H.",
"H.H.H.H.H.H.H.H.H.H.H.H.H.H.H.H.H.H.H.H.                H.H.H.H.H.H.                H.H.H.H.H.H.H.H.H.H.H.H.H.H.H.H.H.H.H.H.H.H.",
"H.H.H.H.H.H.H.H.H.H.H.H.H.H.H.H.H.H.H.H.H.H.H.H.H.H.H.H.H.H.H.H.H.H.H.H.H.H.H.H.H.H.H.H.H.H.H.H.H.H.H.H.H.H.H.H.H.H.H.H.H.H.H.H.",
"H.H.H.H.H.H.H.H.H.H.H.H.H.H.H.H.H.H.H.H.H.H.H.H.H.H.H.H.H.H.H.H.H.H.H.H.H.H.H.H.H.H.H.H.H.H.H.H.H.H.H.H.H.H.H.H.H.H.H.H.H.H.H.H.",
"H.H.H.H.H.H.H.H.H.H.H.H.H.H.H.H.H.H.H.H.H.H.H.H.H.H.H.H.H.H.H.H.H.H.H.H.H.H.H.H.H.H.H.H.H.H.H.H.H.H.H.H.H.H.H.H.H.H.H.H.H.H.H.H.",
"H.H.H.H.H.H.H.H.H.H.H.H.H.H.H.H.H.H.H.H.H.H.H.H.H.H.H.H.H.H.H.H.H.H.H.H.H.H.H.H.H.H.H.H.H.H.H.H.H.H.H.H.H.H.H.H.H.H.H.H.H.H.H.H.",
"H.H.H.H.H.H.H.H.H.H.H.H.H.H.H.H.H.H.H.H.H.H.H.H.H.H.H.H.H.H.H.H.H.H.H.H.H.H.H.H.H.H.H.H.H.H.H.H.H.H.H.H.H.H.H.H.H.H.H.H.H.H.H.H.",
"H.H.H.H.H.H.H.H.H.H.H.H.H.H.H.H.H.H.H.H.H.H.H.H.H.H.H.H.H.H.H.H.H.H.H.H.H.H.H.H.H.H.H.H.H.H.H.H.H.H.H.H.H.H.H.H.H.H.H.H.H.H.H.H."
};
