/* XPM */
static char *_bf0f59997774f2defb9390b0b706ef1iZjw7MQzEzbhAJ0E[] = {
/* columns rows colors chars-per-pixel */
"64 64 158 2 ",
"   c None",
".  c #000000",
"X  c #0B0304",
"o  c #0F0609",
"O  c #11070A",
"+  c #120C0E",
"@  c #000013",
"#  c #00001A",
"$  c #150F10",
"%  c #131010",
"&  c #191415",
"*  c #1D1A1B",
"=  c #211E1E",
"-  c #000028",
";  c #001B29",
":  c #000031",
">  c #00212F",
",  c #242121",
"<  c #2B2627",
"1  c #2C2A2A",
"2  c #312E2E",
"3  c #363232",
"4  c #3C3637",
"5  c #3C3738",
"6  c #3E3B3B",
"7  c #423E3E",
"8  c #56463D",
"9  c #6B5B3C",
"0  c #1D2A41",
"q  c #413F43",
"w  c #454142",
"e  c #4A4646",
"r  c #494847",
"t  c #4C4748",
"y  c #4E4A4A",
"u  c #534D4E",
"i  c #5C4E48",
"p  c #494B59",
"a  c #555252",
"s  c #595555",
"d  c #5C5857",
"f  c #5D5A5A",
"g  c #614C41",
"h  c #675143",
"j  c #615D5C",
"k  c #63605F",
"l  c #766853",
"z  c #7D6F57",
"x  c #79675C",
"c  c #796154",
"v  c #7E725F",
"b  c #656262",
"n  c #6A6666",
"m  c #6E6A6A",
"M  c #726E6E",
"N  c #716A64",
"B  c #74706F",
"V  c #767373",
"C  c #7A7575",
"Z  c #7B7877",
"A  c #7E7A79",
"S  c #8A6855",
"D  c #956B52",
"F  c #877556",
"G  c #8C7C63",
"H  c #827D7D",
"J  c #AB9050",
"K  c #AE9358",
"L  c #84807F",
"P  c #A4816F",
"I  c #B48466",
"U  c #B78B70",
"Y  c #B98B70",
"T  c #BFA776",
"R  c #C7A758",
"E  c #C4A456",
"W  c #CB9B7D",
"Q  c #868382",
"!  c #898584",
"~  c #8C8887",
"^  c #8E8A8A",
"/  c #918D8C",
"(  c #95908F",
")  c #959292",
"_  c #9A9594",
"`  c #9D9897",
"'  c #979498",
"]  c #9E9A99",
"[  c #A2948D",
"{  c #A39D9D",
"}  c #ADA397",
"|  c #A4A09F",
" . c #A5A2A1",
".. c #AAA5A4",
"X. c #ACA8A7",
"o. c #AEAAA9",
"O. c #B2ADAC",
"+. c #B4B0AF",
"@. c #B6B2B1",
"#. c #B9B5B4",
"$. c #BCB8B7",
"%. c #BFBAB9",
"&. c #C69D86",
"*. c #C09D88",
"=. c #CDA58C",
"-. c #C1A18D",
";. c #D2A68B",
":. c #D1A88C",
">. c #C7B086",
",. c #C9A994",
"<. c #D4AD94",
"1. c #D6B29B",
"2. c #DAB49C",
"3. c #C7B4AA",
"4. c #D7B5A0",
"5. c #D8B6A0",
"6. c #DCBAA5",
"7. c #DBBEAC",
"8. c #D2BAAC",
"9. c #C3BEBD",
"0. c #DEC28C",
"q. c #C5C0BF",
"w. c #DEC3B3",
"e. c #D1C6B9",
"r. c #E1CABD",
"t. c #C6C2C1",
"y. c #CAC5C4",
"u. c #CDC9C7",
"i. c #CECAC9",
"p. c #D2CDCB",
"a. c #D1CAC6",
"s. c #D6D0CF",
"d. c #DCD3CE",
"f. c #D7D2D0",
"g. c #DBD5D4",
"h. c #DED8D7",
"j. c #DFDAD9",
"k. c #E7D6CE",
"l. c #E4D9CD",
"z. c #E1D6D1",
"x. c #E8DBD3",
"c. c #E3DDDB",
"v. c #EBDFDA",
"b. c #E6E0DF",
"n. c #ECE2DD",
"m. c #E7E2E2",
"M. c #EBE5E3",
"N. c #EFE9E7",
"B. c #EEEAE9",
"V. c #F1E6E1",
"C. c #F2E9E5",
"Z. c #F2ECEA",
"A. c #FAEFEA",
"S. c #F6F0EE",
"D. c #F9F2EF",
"F. c #FAF4F2",
"G. c #FFF9F6",
"H. c #FFFAF8",
/* pixels */
"                                                                                                                                ",
"                                                                                                                                ",
"                                                                                                                                ",
"                                                                                                                                ",
"                                                    . . < 7         1 , . o 2 6                                                 ",
"                                                    H Q f <         8 f n b u 3                                                 ",
"                                                . C i.p.H .     . < u C ] _ b &                                                 ",
"                                                . _ N.m.^ .     a H _ +.y.$.V .                                                 ",
"                                            2 6 7 _ b.c.Q . . f ^ #.p.c.M.p.H .                                                 ",
"                                            + b ^ $.M.h.Q . . M +.g.N.F.G.h.! .                                                 ",
"                                            . Z q.M.S.g.H . . B i.Z.Z.S.F.g.! .                                                 ",
"                                            . / c.F.F.f.A . 2 ) c.D.M.m.Z.g.Q .                                                 ",
"                                        1 q u _ z.F.G.g.C * H $.b.C.w.a.A.g.! .                                                 ",
"                                        , d C O.c.Z.N.i.C j +.f.c.k.4.6.V.c.^ .                                                 ",
"                                        X b _ 9.c.N.f.@.C ^ p.b.r.6.<.w.A.M./ .                                                 ",
"                                        . m  .a.N.m.@./ Q X.m.C.7.:.<.7.z.t.Z .                                                 ",
"                                        . m  .s.Z.b./ f / 9.M.C.w.<.2.,._ V                                                     ",
"                                        . f ^ #.h.q.j w o.s.c.k.7.1.6.-.h .                                                     ",
"                                    . . . . 7 M _ ^ 2 m i.n.r.6.2.2.6.,.x .                                                     ",
"                                    C / Q C f f Z V 5 ! j.C.w.:.1.1.2.*.x #                                                     ",
"                                . m 9.b.h.i.X.` | ` M _ j.V.w.<.2.<.;.U c ;                                                     ",
"                                5 | b.H.F.N.s.t.u.#.Q ` j.V.w.:.1.=.U D g >                                                     ",
"                            . a Q $.c.S.Z.N.b.b.M.p.Q ^ j.V.w.;.W I S 8                                                         ",
"                            < H #.g.M.Z.Z.Z.Z.Z.D.c.O.o.b.n.r.:.&.P i .                                                         ",
"                        1 q u _ s.N.M.Z.S.S.C.C.S.N.j.j.B.b.6.,.3.{ d . . . . . . + , 1                                         ",
"                        * s V O.c.S.Z.M.g.h.M.B.b.b.Z.D.S.n.r.8.#.] V j H ! ! H M b d q                                         ",
"                        . a ^ %.b.S.F.j.( _ b.Z.y.q.b.S.B.C.C.d...Q / O.i.c.h.p.O./ C y . . . .                                 ",
"                        y ! @.f.m.Z.C.t.y 6 %.g.q.y.b.N.N.N.N.s./ H #.f.N.F.F.N.f.%.o.` / H C f                                 ",
"                    . a ! #.f.N.C.m.s.| w . 6 ( i.M.N.C.S.b.p.X.V ^ p.N.N.Z.Z.N.M.c.j.g.j.i.@.! y .                             ",
"                    < H #.g.N.Z.S.b.i.o.^ M s ) j.F.Z.N.Z.b.y.+.] +.c.S.Z.N.N.N.Z.Z.S.S.F.N.h.#.^ y                             ",
"                1 q u _ p.N.C.Z.N.N.b.h.g.s.s.g.M.S.N.N.S.N.b.j.g.c.M.Z.N.N.N.N.N.Z.N.Z.Z.N.M.g.#.! a .                         ",
"                , f C O.c.F.Z.Z.N.N.Z.S.S.D.S.S.N.N.N.M.b.b.N.S.A.Z.C.N.N.N.N.N.N.N.N.N.N.N.S.M.g.@.H 1                         ",
"                X b ' t.m.F.D.S.N.N.N.Z.N.Z.Z.N.N.N.S.M.i.a.M.Z.Z.Z.N.N.N.N.N.N.N.N.N.B.B.C.N.N.N.p._ u q 1                     ",
"                . m } e.l.x.d.h.M.Z.N.N.N.N.N.N.Z.N.M.f.X.O.c.Z.N.N.N.N.N.N.N.N.N.N.N.C.N.B.N.N.F.c.o.C s ,                     ",
"                - z T 0.0.>.N / g.S.N.N.N.N.Z.A.F.N.f.+.Q _ g.Z.Z.N.N.N.N.N.N.N.N.N.B.C.N.N.N.N.Z.c.9.^ f .                     ",
"                : 9 J R R K l ) g.F.Z.N.Z.N.m.c.h.u.O.` ( O.c.Z.N.N.N.N.N.N.N.Z.N.N.N.B.N.N.N.N.Z.M.f.O.Z <                     ",
"                    9 F G } a.m.Z.Z.Z.F.D.C.g.#.~ m m _ u.c.N.B.N.N.Z.N.N.N.N.N.N.N.N.B.N.N.N.N.Z.N.M.p.) u w 1                 ",
"                    @ 0 p ' p.M.c.h.c.c.c.p.O.Q a u H #.c.F.Z.N.N.N.N.N.N.N.N.N.N.N.N.C.N.N.N.N.N.Z.F.b.O.Z a X                 ",
"                        q b H ( { o.t.t.O./ b j ! o.i.c.N.C.N.N.N.N.N.N.N.N.N.N.N.N.N.B.N.B.N.N.N.N.Z.b.t._ y .                 ",
"                        2 % . . t Z ` ` V s q Z +.g.N.F.Z.N.N.N.Z.N.N.N.N.N.N.N.N.N.N.C.B.C.B.C.N.N.A.c.9.{ ( C                 ",
"                                q j n b w j / #.f.N.B.Z.N.N.N.Z.Z.Z.Z.N.C.B.N.N.N.N.N.N.N.B.C.N.N.Z.S.h.{ _ p.y.A .             ",
"                                < = . . . b  .p.M.S.Z.N.N.N.Z.N.c.m.N.C.B.N.N.N.N.N.B.C.N.N.B.N.N.Z.Z.h._ { Z.N.) .             ",
"                                        . n  .i.M.A.Z.Z.N.Z.Z.c.y.u.m.Z.B.N.N.N.N.B.N.N.N.N.N.B.N.N.Z.c.@.#.N.c.^ .             ",
"                                        . b _ 9.g.m.N.Z.N.Z.Z.c.$.#.f.N.N.Z.N.N.N.C.B.N.B.C.B.Z.N.Z.Z.c.9.9.c.f.L .             ",
"                                        , j H { #.p.M.A.Z.Z.D.b.9.+.9.s.M.S.N.N.N.N.N.B.C.B.Z.Z.N.N.Z.b.9.$.i.#.Z .             ",
"                                        1 t j H _ $.g.M.b.b.m.h.q.X.` o.f.M.B.Z.Z.N.Z.N.N.N.b.b.N.N.Z.c.9. .../ j .             ",
"                                            7 b H { 9.i.u.t.q.9.%. .m V +.g.B.F.Z.Z.Z.A.F.N.u.y.m.Z.F.c.X.C M f                 ",
"                                            = q j Z )  . ...O.+.$. .d e ! +.i.c.c.m.m.c.g.a.+.%.b.Z.N.p.` j 5 .                 ",
"                                            3 q 6 y s M Q ` O.#.$...H j f M ( O.9.i.a.$.~ L | y.N.C.s.+._ M u ,                 ",
"                                            1 5 r q + < u H ..$.#.o.{ H 7 O u V ) |  .^ 2 t ] t.c.g.q.{ ! b t <                 ",
"                                            . 8 M B w . . s { #.O.O.O.] j & 7 u f d r w y C ..%.9.t.9...V 3                     ",
"                                            k B Z M a u n / #.t.t.q.9.X.n . < 1 < r b Q _ X.O.@.@.O.@.] b .                     ",
"                                        . b ] ] m 8 w ! q.c.c.b.m.h.i...m X < 7 u / 9.c.c.s.#.O.$.@.{ H j =                     ",
"                                        . C #.O.f 6 ! 9.M.F.S.S.F.m.9.^ j X * a C O.m.G.F.N.s.$.o._ H j e 1                     ",
"                                        . C #.O.p m y.S.D.F.D.F.H.m.| 7     . m ` u.N.F.F.F.D.f.( r a r                         ",
"                                        . b ] ] r M y.m.h.g.g.g.c.9.m .     . j ) 9.p.h.g.g.b.t.M . + 1                         ",
"                                            b m w u H ^ ! Q ! ! / C             j A L ! ! ! ^ A a ,                             ",
"                                            . % 4 1 . . . . . . . .             . . . . . . . . 1 7                             ",
"                                                                                                                                ",
"                                                                                                                                ",
"                                                                                                                                ",
"                                                                                                                                ",
"                                                                                                                                ",
"                                                                                                                                "
};
