/* XPM */
static char *_62812c3196a4236e88b08c2f69671b4kZtGumB1mlEFn6hZ[] = {
/* columns rows colors chars-per-pixel */
"64 64 161 2 ",
"   c None",
".  c #000000",
"X  c #0B0204",
"o  c #0F0609",
"O  c #11070A",
"+  c #120D0D",
"@  c #000013",
"#  c #00001C",
"$  c #140F10",
"%  c #131010",
"&  c #1A1416",
"*  c #1D1A1B",
"=  c #211E1F",
"-  c #000028",
";  c #001B29",
":  c #000031",
">  c #00212F",
",  c #242121",
"<  c #2B2627",
"1  c #2C2A2A",
"2  c #312E2E",
"3  c #332F30",
"4  c #363333",
"5  c #3B3738",
"6  c #3F3B3B",
"7  c #3C3637",
"8  c #423E3E",
"9  c #56463D",
"0  c #6B5B3C",
"q  c #1C2A40",
"w  c #413F43",
"e  c #454142",
"r  c #4A4646",
"t  c #4B4748",
"y  c #4E4A4A",
"u  c #534D4E",
"i  c #5C4E48",
"p  c #494B59",
"a  c #534F50",
"s  c #555252",
"d  c #595555",
"f  c #5D5857",
"g  c #5D5A5A",
"h  c #634C41",
"j  c #675143",
"k  c #615D5C",
"l  c #63605F",
"z  c #766852",
"x  c #7D6F57",
"c  c #79675C",
"v  c #796154",
"b  c #7E725F",
"n  c #656262",
"m  c #6A6666",
"M  c #6D6A6A",
"N  c #726E6D",
"B  c #706A64",
"V  c #74706F",
"C  c #767373",
"Z  c #7A7575",
"A  c #7B7877",
"S  c #7E7A79",
"D  c #8A6855",
"F  c #956B52",
"G  c #877556",
"H  c #8C7C63",
"J  c #827D7D",
"K  c #AB904F",
"L  c #AE9358",
"P  c #84807F",
"I  c #A4816F",
"U  c #B48466",
"Y  c #B78B70",
"T  c #B98B70",
"R  c #BFA776",
"E  c #C7A758",
"W  c #C4A456",
"Q  c #CB9B7D",
"!  c #868282",
"~  c #898584",
"^  c #8C8887",
"/  c #8E8A8A",
"(  c #918D8C",
")  c #94908F",
"_  c #959292",
"`  c #9A9594",
"'  c #9D9897",
"]  c #979498",
"[  c #9E9A99",
"{  c #A2948D",
"}  c #A39D9D",
"|  c #ADA397",
" . c #A4A09F",
".. c #A5A2A1",
"X. c #AAA5A4",
"o. c #ACA8A7",
"O. c #AEAAA9",
"+. c #B2ADAC",
"@. c #B4B0AF",
"#. c #B6B2B1",
"$. c #B9B5B4",
"%. c #BCB8B7",
"&. c #BFBAB9",
"*. c #C09D88",
"=. c #C69D86",
"-. c #CDA58C",
";. c #C1A18D",
":. c #D2A68B",
">. c #D1A88C",
",. c #C7B086",
"<. c #C9A994",
"1. c #D4AD94",
"2. c #D6B29B",
"3. c #DAB49D",
"4. c #C7B4AA",
"5. c #D7B5A0",
"6. c #D8B6A0",
"7. c #DDBAA5",
"8. c #DBBDAB",
"9. c #D3BAAC",
"0. c #C3BEBD",
"q. c #DEC28C",
"w. c #C5C0BF",
"e. c #DEC3B3",
"r. c #D1C6B9",
"t. c #E1CABD",
"y. c #C6C2C1",
"u. c #CAC5C4",
"i. c #CDC9C7",
"p. c #CECAC9",
"a. c #D2CDCB",
"s. c #D1CAC6",
"d. c #D6D0CF",
"f. c #DCD3CF",
"g. c #D7D2D0",
"h. c #DBD5D3",
"j. c #DED8D7",
"k. c #DFDAD9",
"l. c #E7D6CE",
"z. c #E4D9CD",
"x. c #E1D6D1",
"c. c #E8DBD3",
"v. c #E3DDDB",
"b. c #EBDFDA",
"n. c #E6E0DF",
"m. c #ECE2DD",
"M. c #E7E2E2",
"N. c #EBE5E3",
"B. c #EFE9E7",
"V. c #EEEAE9",
"C. c #F1E6E1",
"Z. c #F2E9E5",
"A. c #F2E9E5",
"S. c #F5EFEC",
"D. c #F2ECEA",
"F. c #FAEFEA",
"G. c #F6F0EE",
"H. c #F9F2EF",
"J. c #FAF4F2",
"K. c #FFF9F6",
"L. c #FFFAF8",
/* pixels */
"                                                                                                                                ",
"                                                                                                                                ",
"                                                                                                                                ",
"                                                                                                                                ",
"                                                    6 2 o . , 1         8 < . .                                                 ",
"                                                    4 u n m g e         1 g ~ S                                                 ",
"                                                    & n ` [ A u < .     . J a.i.Z .                                             ",
"                                                    . C %.u.+.` J s     . / M.B.` .                                             ",
"                                                    . J a.N.M.a.#.^ g . . ! v.v.` 7 6 2                                         ",
"                                                    . ! j.K.J.V.k.@.N . . P k.N.0./ n +                                         ",
"                                                    . ^ h.J.G.V.V.i.C . . J h.S.N.y.A .                                         ",
"                                                    . ! h.S.m.m.H.k._ 2 . S h.J.K.v.( .                                         ",
"                                                    . ^ j.Z.e.t.A.M.%.J = C h.J.H.j.` u 8 1                                     ",
"                                                    . ^ v.C.8.5.l.v.g.@.n C i.D.D.v.+.A f ,                                     ",
"                                                    . ( M.F.t.1.7.e.M.d.^ Z @.h.B.n.0.` n X                                     ",
"                                                    . A y.l.7.1.>.e.Z.M.o.! ( #.v.B.s...M .                                     ",
"                                                        C { <.3.1.e.B.V.&./ g ( v.G.d.X.M .                                     ",
"                                                        . j -.3.1.8.c.M.g.O.r k y.h.#./ g .                                     ",
"                                                        . c <.7.2.5.7.e.n.a.M 1 ( ` V 8 . . . .                                 ",
"                                                        # c | 3.2.2.:.e.Z.k.^ 7 V Z g g Z ! ( C                                 ",
"                                                        ; v Y :.2.5.1.e.C.k.` N '  .` O.i.k.n.w.M .                             ",
"                                                        > h F T -.1.1.e.C.k.[ ~ $.i.y.d.B.J.K.n...5                             ",
"                                                            9 D U =.-.e.C.k./ ! a.N.n.n.B.D.G.n.&.! s .                         ",
"                                                            . i I =.>.e.m.v.O.O.n.H.G.D.D.D.V.M.h.#.J 1                         ",
"                                            1 , + . . . . . . g } 4.-.7.b.B.v.v.B.D.A.D.G.G.D.B.B.a.` u w 1                     ",
"                                            8 g l N J ^ ^ S l C [ 4.9.l.n.S.S.D.n.n.D.N.h.h.m.G.H.v.+.C d *                     ",
"                                    . . . . u Z ( +.s.k.k.p.O.) ! ..h.Z.A.V.D.v.w.i.D.n.` _ k.H.S.v.&.( s .                     ",
"                                    g Z S ( ` O.&.g.D.J.J.V.h.#.S ) a.V.V.D.D.n.u.0.h.&.6 y w.D.D.M.d.#.~ y                     ",
"                                . y ~ #.p.k.h.k.v.M.B.D.D.V.B.s.^ C O.s.n.D.D.B.B.p.( 6 . e ..a.n.D.B.h.#.^ s .                 ",
"                                y / $.j.V.J.G.G.S.D.A.B.B.D.J.v.+.[ +.i.M.D.B.D.H.k._ d N ( O.p.n.S.S.N.j.#.J <                 ",
"                            . s ~ $.h.N.B.D.D.B.D.D.B.B.B.B.D.N.v.j.v.M.D.D.A.B.D.N.j.a.g.h.k.n.N.A.A.D.B.a.` u e 1             ",
"                            < J #.h.N.G.D.B.B.B.B.B.B.B.B.B.B.B.D.S.D.D.n.v.B.D.V.D.S.H.G.G.S.D.D.B.D.D.J.v.+.Z f ,             ",
"                        1 e u ` a.B.B.B.B.B.Z.V.B.B.B.B.B.B.B.B.D.D.D.M.i.s.N.S.D.B.A.D.D.B.D.B.B.D.S.J.J.n.y.] n X             ",
"                        = d C +.v.G.D.B.B.B.B.B.B.B.B.V.B.B.B.B.D.A.D.v.+.O.g.N.V.V.V.D.B.B.B.B.A.M.h.d.m.z.r.| B .             ",
"                        . k ( &.v.S.D.B.V.B.B.B.B.B.B.A.B.V.B.B.B.A.S.h.` P @.h.V.J.H.V.V.B.B.V.H.h./ B ,.q.1.R x -             ",
"                        < Z @.d.M.D.D.B.B.B.B.B.V.B.B.B.V.A.V.A.B.V.S.v.+.) ] +.i.k.k.M.B.D.A.D.H.h._ x K E E K 0 :             ",
"                    1 e u ` a.A.Z.V.B.Z.B.B.B.B.A.B.B.B.V.A.V.B.B.B.B.N.n.i.` N m / #.h.B.J.S.D.G.D.M.s.| H G 0                 ",
"                    X s A +.v.H.D.B.B.B.Z.B.B.V.V.B.V.A.B.B.B.B.B.B.B.D.J.n.#.J a s ~ +.a.v.n.n.k.x.M.a.] p q @                 ",
"                    . y ` y.n.D.D.B.B.B.V.B.V.B.B.B.B.B.B.B.B.V.B.B.B.B.D.B.b.p.O.~ g k ( +.y.y.+.` ) J m e                     ",
"                    C _ } 0.n.D.V.B.B.V.B.B.Z.B.B.B.B.B.B.B.B.A.B.D.B.B.B.B.G.B.h.@.A 9 d C ` ' S y . . + 2                     ",
"                . S i.a.` } h.G.D.B.B.B.B.B.B.B.B.B.B.B.B.B.B.V.S.S.B.B.B.B.D.B.N.h.$./ k e n m d 9                             ",
"                . ) N.B.} ` k.G.Z.B.B.B.B.B.B.B.B.B.B.B.B.B.A.B.v.n.B.B.B.B.B.D.G.N.a...n . . . , 2                             ",
"                . / n.V.$.#.v.D.V.B.B.B.B.B.B.B.B.B.B.B.B.B.S.M.i.u.n.D.B.B.B.D.S.N.p...m .                                     ",
"                . P d.v.0.w.v.D.D.B.B.D.B.B.B.B.B.B.B.B.D.B.N.h.$.%.v.S.D.B.D.B.N.h.0.] n X                                     ",
"                . A &.p.$.y.v.D.B.V.D.D.D.B.B.B.V.B.B.D.D.B.d.0.@.0.n.G.S.S.S.N.d.$.} J k =                                     ",
"                . k ( ....0.v.S.D.B.n.n.B.D.B.B.A.V.D.B.B.g.O.` o.0.j.n.n.n.M.h.$.` J k r 1                                     ",
"                    k N A o.v.J.S.v.u.i.B.J.S.D.D.S.H.B.h.+.C M ..0.0.y.y.u.p.0.} J k 8                                         ",
"                    . 4 k } a.B.S.v.&.+.i.j.v.n.M.n.v.a.+.~ r g ..%.@.O.X....._ J k w =                                         ",
"                    , a N ` +.d.B.N.u. .P ^ %.p.i.w.+.) C f k J X.&.$.O.` ! N f t 9 6 4                                         ",
"                    < t n ~ } w.k.k.y.[ r 4 ^  . ._ C u O 8 S [ O.$.%.X.J u < + w t 6 2                                         ",
"                        4 Z X.0.w.0.&.X.Z t e r f g u 8 & k [ @.+.#.#.} f . . e M V 8 .                                         ",
"                        . l } @.@.@.#.@.X.` ! m r < < < . m X.w.w.y.i.$.( m u u N A V l                                         ",
"                        = k J } #.&.O.%.a.v.x.w.( u 8 < X M o.p.k.M.n.v.k.0.^ r e M [ [ n .                                     ",
"                        1 e k J ` O.%.d.B.K.L.M.+.Z s = X k / 0.M.G.D.G.K.N.0.! 6 g #.$.A .                                     ",
"                            t d r ) h.G.G.J.J.B.i.[ M .     6 ..n.K.J.H.J.G.V.i.M s O.$.Z .                                     ",
"                            1 + . N y.n.j.h.k.a.&._ k .     . M w.v.k.h.h.k.M.u.V r [ [ n .                                     ",
"                                , s S / ^ ! ^ J A k             A ( ^ ! ! ^ / S s e m n                                         ",
"                                8 1 . . . . . . . .             . . . . . . . . 1 5 % .                                         ",
"                                                                                                                                ",
"                                                                                                                                ",
"                                                                                                                                ",
"                                                                                                                                ",
"                                                                                                                                ",
"                                                                                                                                "
};
