/* XPM */
static char *result[] = {
/* columns rows colors chars-per-pixel */
"64 64 233 2 ",
"   c #1C032B",
".  c #1D052C",
"X  c #200F2F",
"o  c #20102F",
"O  c #211130",
"+  c #211230",
"@  c #241633",
"#  c #251733",
"$  c #261C34",
"%  c #281E36",
"&  c #281E37",
"*  c #291F37",
"=  c #282036",
"-  c #2A2038",
";  c #2A2138",
":  c #2B2339",
">  c #2C253A",
",  c #2C253B",
"<  c #2D263B",
"1  c #2D273B",
"2  c #2D273C",
"3  c #2E283C",
"4  c #2F293D",
"5  c #2F2A3D",
"6  c #302A3D",
"7  c #302B3E",
"8  c #302C3E",
"9  c #312C3F",
"0  c #312D3F",
"q  c #322D40",
"w  c #322C41",
"e  c #322E40",
"r  c #332E40",
"t  c #332F40",
"y  c #332E41",
"u  c #332F41",
"i  c #332E42",
"p  c #332F42",
"a  c #342F42",
"s  c #342F43",
"d  c #352F44",
"f  c #333041",
"g  c #343041",
"h  c #343042",
"j  c #343142",
"k  c #343043",
"l  c #353043",
"z  c #353143",
"x  c #353243",
"c  c #353144",
"v  c #353244",
"b  c #363244",
"n  c #363344",
"m  c #363245",
"M  c #373245",
"N  c #373345",
"B  c #373246",
"V  c #373346",
"C  c #373347",
"Z  c #363444",
"A  c #373445",
"S  c #373446",
"D  c #373546",
"F  c #383546",
"G  c #383447",
"H  c #383547",
"J  c #393647",
"K  c #393747",
"L  c #383548",
"P  c #393548",
"I  c #393648",
"U  c #393748",
"Y  c #393649",
"T  c #3A3649",
"R  c #3A3849",
"E  c #3B3949",
"W  c #3B3A49",
"Q  c #3B384A",
"!  c #3B3A4A",
"~  c #3C394A",
"^  c #3C394B",
"/  c #3C3B4A",
"(  c #3C3A4B",
")  c #3D3A4B",
"_  c #3C3B4B",
"`  c #3D3A4C",
"'  c #3D3B4C",
"]  c #3D3C4C",
"[  c #3E3D4C",
"{  c #3E3D4D",
"}  c #3F3E4D",
"|  c #3E3C4E",
" . c #3F3D4E",
".. c #3F3E4E",
"X. c #403E4E",
"o. c #403F4E",
"O. c #404050",
"+. c #414250",
"@. c #424250",
"#. c #424251",
"$. c #444453",
"%. c #454653",
"&. c #454554",
"*. c #464655",
"=. c #474956",
"-. c #484957",
";. c #4A4B59",
":. c #4B4D5A",
">. c #515360",
",. c #585C68",
"<. c #5A606A",
"1. c #5D636E",
"2. c #5E656E",
"3. c #606771",
"4. c #616971",
"5. c #626B73",
"6. c #686F79",
"7. c #677079",
"8. c #687179",
"9. c #6A727B",
"0. c #6A727C",
"q. c #6B737D",
"w. c #707983",
"e. c #717C83",
"r. c #737C85",
"t. c #747D86",
"y. c #757E87",
"u. c #757F87",
"i. c #757E88",
"p. c #768188",
"a. c #768288",
"s. c #77818A",
"d. c #79868B",
"f. c #79868C",
"g. c #7A878D",
"h. c #7B878D",
"j. c #7B868F",
"k. c #7A888E",
"l. c #7B888E",
"z. c #7B898E",
"x. c #7B898F",
"c. c #7C898F",
"v. c #7C8A8F",
"b. c #7E8991",
"n. c #7C8A90",
"m. c #7D8A90",
"M. c #7D8B90",
"N. c #7D8A91",
"B. c #7C8B91",
"V. c #7D8B91",
"C. c #7E8A90",
"Z. c #7E8B91",
"A. c #7E8B92",
"S. c #7F8B92",
"D. c #7E8C91",
"F. c #7E8C92",
"G. c #7F8C92",
"H. c #7E8D92",
"J. c #7F8C93",
"K. c #808C92",
"L. c #808D93",
"P. c #808D94",
"I. c #808E94",
"U. c #818F95",
"Y. c #828E96",
"T. c #838F97",
"R. c #829096",
"E. c #839097",
"W. c #839197",
"Q. c #839198",
"!. c #859199",
"~. c #849298",
"^. c #849299",
"/. c #86949B",
"(. c #87959B",
"). c #88969D",
"_. c #8A979F",
"`. c #8A989F",
"'. c #8B97A0",
"]. c #8C99A0",
"[. c #8E9BA3",
"{. c #909FA5",
"}. c #919EA6",
"|. c #919FA6",
" X c #919FA7",
".X c #92A0A7",
"XX c #94A3AA",
"oX c #95A3AB",
"OX c #95A4AB",
"+X c #96A4AB",
"@X c #96A4AC",
"#X c #96A5AC",
"$X c #97A6AD",
"%X c #97A7AE",
"&X c #97A7AF",
"*X c #98A6AD",
"=X c #98A7AD",
"-X c #98A6AE",
";X c #98A7AE",
":X c #99A7AE",
">X c #98A6AF",
",X c #98A7AF",
"<X c #98A8AE",
"1X c #98A8AF",
"2X c #99A8AF",
"3X c #99A9AF",
"4X c #99A8B0",
"5X c #99A9B0",
"6X c #9AA9B0",
"7X c #9AA9B1",
"8X c #9AAAB1",
"9X c #9BAAB1",
"0X c #9BABB1",
"qX c #9BABB2",
"wX c #9CABB2",
"eX c #9CACB2",
"rX c #9CACB3",
"tX c #9DACB3",
"yX c #9DACB4",
"uX c #9EADB4",
"iX c #9FAEB6",
"pX c #9FAFB6",
"aX c #9FAFB7",
"sX c #A0B0B7",
"dX c #A1B0B8",
"fX c #A1B1B8",
"gX c #A1B1B9",
"hX c #A2B2B9",
"jX c #A2B2BA",
"kX c #A3B3BA",
"lX c #A3B3BB",
"zX c #A4B4BC",
"xX c None",
/* pixels */
"xXxXxXxXxXxXxXxXxXxXxXxXxXxXxXxXxXxXxXxXxXxXxXxXxXxXxXxXxXxXxXxXxXxXxXxXxXxXxXxXxXxXxXxXxXxXxXxXxXxXxXxXxXxXxXxXxXxXxXxXxXxXxXxX",
"xXxXxXxXxXxXxXxXxXxXxXxXxXxXxXxXxXxXxXxXxXxXxXxXxXxXxXxXxXxXxXxXxXxXxXxXxXxXxXxXxXxXxXxXxXxXxXxXxXxXxXxXxXxXxXxXxXxXxXxXxXxXxXxX",
"xXxXxXxXxXxXxXxXxXxXxXxXxXxXxXxXxXxXxXxXxXxXxXxXxXxXxXxXxXxXxXxXxXxXxXxXxXxXxXxXxXxXxXxXxXxXxXxXxXxXxXxXxXxXxXxXxXxXxXxXxXxXxXxX",
"xXxXxXxXxXxXxXxXxXxXxXxXxXxXxXxXxXxXxXxXxXxXxXxXxXxXxXxXxXxXxXxXxXxXxXxXxXxXxXxXxXxXxXxXxXxXxXxXxXxXxXxXxXxXxXxXxXxXxXxXxXxXxXxX",
"xXxXxXxXxXxXxXxXxXxXxXxXxXxXxXxXxXxXxXxXxXxXxXxXxXxXxXxXxXxXxXxXxXxXxXxXxXxXxXxXxXxXxXxXxXxXxXxXxXxXxXxXxXxXxXxXxXxXxXxXxXxXxXxX",
"xXxXxXxXxXxXxXxXxXxXxXxXxXxXxXxXxXxXxXxXxXxXxXxXxXxXxXxXxXxXxXxXxXxXxXxXxXxXxXxXxXxXxXxXxXxXxXxXxXxXxXxXxXxXxXxXxXxXxXxXxXxXxXxX",
"xXxXxXxXxXxXxXxXxXxXxXxXxXxXxXxXxXxXxXxXxXxXxXxXxXxXxXxXxXxXxXxXxXxXxXxXxXxXxXxXxXxXxXxXxXxXxXxXxXxXxXxXxXxXxXxXxXxXxXxXxXxXxXxX",
"xXxXxXxXxXxXxXxXxXxXxXxXxXxXxXxXxXxXxXxXxXxXxXxXxXxXxXxXxXxXxXxXxXxXxXxXxXxXxXxXxXxXxXxXxXxXxXxXxXxXxXxXxXxXxXxXxXxXxXxXxXxXxXxX",
"xXxXxXxXxXxXxXxXxXxXxXxXxXxXxXxXxXxXxXxXxXxXxXxXxXxXxXxXxXxXxXxXxXxXxXxXxXxXxXxXxXxXxXxXxXxXxXxXxXxXxXxXxXxXxXxXxXxXxXxXxXxXxXxX",
"xXxXxXxXxXxXxXxXxXxXxXxXxXxXxXxXxXxXxXxXxXxXxXxXxXxXxXxXxXxXxXxXxXxXxXxXxXxXxXxXxXxXxXxXxXxXxXxXxXxXxXxXxXxXxXxXxXxXxXxXxXxXxXxX",
"xXxXxXxXxXxXxXxXxXxXxXxXxXxXxXxXxXxXxXxXxXxXxXxXxXxXxXxXxXxXxXxXxXxXxXxXxXxXxXxXxXxXxXxXxXxXxXxXxXxXxXxXxXxXxXxXxXxXxXxXxXxXxXxX",
"xXxXxXxXxXxXxXxXxXxXxXxXxXxXxXxXxXxXxXxXxXxXxXxXxXxXxXxXxXxXxXxXxXxXxXxXxXxXxXxXxXxXxXxXxXxXxXxXxXxXxXxXxXxXxXxXxXxXxXxXxXxXxXxX",
"xXxXxXxXxXxXxXxXxXxXxXxXxXxXxXxXxXxXxXxXxXxXxXxXxXxXxXxXxXxXxXxXxXxXxXxXxXxXxXxXxXxXxXxXxXxXxXxXxXxXxXxXxXxXxXxXxXxXxXxXxXxXxXxX",
"xXxXxXxXxXxXxXxXxXxXxXxXxXxXxXxXxXxXxXxXxXxXxXxXxXxXxXxXxXxXxXxXxXxXxXxXxXxXxXxXxXxXxXxXxXxXxXxXxXxXxXxXxXxXxXxXxXxXxXxXxXxXxXxX",
"xXxXxXxXxXxXxXxXxXxXxXxXxXxXxXxXxXxXxXxXxXxXxXxXxXxXxXxXxXxX2X,X;X<X&XxXxXxXxXxXxXxXxXxXxXxXxXxXxXxXxXxXxXxXxXxXxXxXxXxXxXxXxXxX",
"xXxXxXxXxXxXxXxXxXxXxXxXxXxXxXxXxXxXxXxXxX>X;X-X;X8XuXsXjXzXlXjXhXlXzXkXdXiX7X<X-X-X;XxXxXxXxXxXxXxXxXxXxXxXxXxXxXxXxXxXxXxXxXxX",
"xXxXxXxXxXxXxXxXxXxXxXxXxXxXxXxXxX<X=X7XgXkXpXwX2X2X;X;X;X;X%X;X;X%X;X;X;X*X2X2XwXiXjXkX5X(.v.xXxXxXxXxXxXxXxXxXxXxXxXxXxXxXxXxX",
"xXxXxXxXxXxXxXxXxXxXxXxXxXxX;X,XiXhXqX;X1X;X;X;X:X;X;X;X;X;X;X;X;X;X;X;X;X;X;X:X;X;X;X%X2X6X).W.m.F.xXxXxXxXxXxXxXxXxXxXxXxXxXxX",
"xXxXxXxXxXxXxXxXxXxXxXxX;XpXsX6X*X;X;X;X;X;X;X;X;X;X;X;X;X;X;X;X;X;X;X;X;X;X;X;X;X;X;X;X$X4XOXc.g.I.W.n.K.xXxXxXxXxXxXxXxXxXxXxX",
"xXxXxXxXxXxXxXxXxXxX;XfXyX;X;X;X;X;X;X;X;X;X;X;X;X;X;X;X;X;X;X;X;X;X;X;X;X;X;X;X;X;X;X;X;X$X6X`.f.x.l.c.W.n.P.xXxXxXxXxXxXxXxXxX",
"xXxXxXxXxXxXxXxX:XkX9X1X;X;X;X;X;X;X;X;X;X;X;X;X;X;X;X;X;X;X;X;X;X;X;X;X;X;X;X;X;X;X;X;X;X;X2XOXm.g.l.x.l.l.Q.m.xXxXxXxXxXxXxXxX",
"xXxXxXxXxXxX;X6XuX%X;X;X;X;X;X;X;X;X;X;X;X;X;X;X;X;X;X;X;X;X;X;X;X;X;X;X;X;X;X;X;X;X;X;X;X;X;X2X(.f.l.l.l.x.z.n.E.H.xXxXxXxXxXxX",
"xXxXxXxXxX,XlX;X;X;X;X;X;X;X;X;X;X;X;X;X;X;X;X;X;X;X;X;X;X;X;X;X;X;X;X;X;X;X;X;X;X;X;X;X;X;X;X2X{.g.l.l.l.l.l.l.l.Q.Z.xXxXxXxXxX",
"xXxXxXxX,XgX*X:X;X;X;X;X;X;X;X;X;X;X;X;X;X;X;X;X;X;X;X;X;X;X;X;X;X;X;X;X;X;X;X;X;X;X;X;X;X;X;X;X#XV.g.l.l.l.l.l.l.k.L.C.xXxXxXxX",
"xXxXxX;XfX;X;X;X;X;X;X;X;X;X;X;X;X;X;X;X;X;X;X;X;X;X;X;X;X;X;X;X;X;X;X;X;X;X;X;X;X;X;X;X;X;X;X;X2X~.f.l.l.l.l.l.l.l.l.J.Z.xXxXxX",
"xXxX;XlX*X;X;X;X;X;X;X;X;X;X;X;X;X;X;X;X;X;X;X;X;X;X;X;X;X;X*X$X$X*X;X;X;X;X;X;X;X;X;X;X;X;X;X=X6X].d.l.l.l.l.l.l.l.l.l.U.G.xXxX",
"xXxXfX%X;X;X;X;X;X;X;X;X;X;X;X;X;X;X;X;X;X$X$X$X$X;X2X2X2X3X6X8X8X6X3X2X2X2X;X$X$X$X$X;X;X;X;X;X2X.Xl.l.l.l.l.l.l.l.l.l.l.^.xXxX",
"xX;XtX*X;X;X;X;X;X;X;X;X;X;X;X;X;X$X$X;X2X8XrXtX9X;X@XoXXX X[._._.[. XXXoX@X;X9XtXrX8X2X;X$X$X;X;X#Xm.h.l.l.l.l.l.l.l.l.l.m.N.xX",
"xXpX;X;X;X;X;X;X;X;X;X;X;X;X$X$X2X0XtX2X+X_.j.y.6.,.;.+.} W F k k F W } +.;.,.6.y.j._.+X2XtX0X2X*X#XG.g.l.l.l.l.l.l.l.l.l.k.R.xX",
"<XfX<X;X;X;X;X;X;X;X;X;X$X1XwX9X+X!.r.1.*.h #   + = < 4 5 7 0 e e 0 7 5 4 < = +   # h *.1.r.!.+X9XqXR.f.l.l.l.l.l.l.l.l.l.z.I.G.",
"=XqX;X;X;X;X;X;X;X*X$X6XwX+XY.0.-.2 . $ 3 e n A n x j h h h h h h h h h h j x n A n e 3 $ . 2 -.9.T.R.v.n.g.l.l.l.l.l.l.l.x.c.G.",
"=X2X;X;X;X;X;X;X$X6XqX|.i.:.& o 1 h A v j h u u u u u u u u u u u u u u u u u u u u h j v A h 1 X - %.4.a.Z.c.g.l.l.l.l.l.l.l.n.",
"=X2X;X;X;X;X$X;XeX}.q.] O > x Z j u u u u u u u u u u u u u u u u u u u u u u u u u u u u u u j Z z 3 ; R <.p.D.l.g.l.l.l.l.l.c.",
"=XqX;X;X;X$X8X$Xs...X 8 n z u u u u u u u u u u u u u u u u u u u u u u u u u u u u u u u u u u u u h x 0 * E 5.g.m.g.l.l.l.l.A.",
"<XfX1X;X$XeX'.>.+ 6 A h u u u u u u u u u u u u u u u u u u u u u u u u u u u u u u u u u u u u u u u u h x 9 ; =.e.D.g.l.x.I.S.",
"xXaX=X;X9Xb.N % A j u u u u u u u u u u u u u u u u u u u u u u u u u u u u u u u u u u u u u u u u u u u u h x , b 8.m.l.h.~.xX",
"xX;XtX6Xw.@ 9 n u u u u u u u u u u u u u u u u u u u u u u u u u u u u u u u u u u u u u u u u u u u u u u u u x q : 2.B.n.M.xX",
"xXxXkXt.X x z u u u u u u u u u u u u u u u u u u u u u u u u u u u u u u u u u u u u u u u u u u u u u u u u u u h j - 3./.xXxX",
"xXxXu.d e h u u u u u u u u u u u u u u u u u u u u u u u u u u u u u u u u u u u u u u u u u u u u u u u u u u u u h u w 7.xXxX",
"xXxXxX( k f u u u u u u u u u u u u u u u u u u u u u u u u u u u u u u u u u u u u u u u u u u u u u u u u u u u u g y } xXxXxX",
"xXxXxXxXJ i u u u u u u u u u u u u u u u u u u u u u u u u u u u u u u u u u u u u u u u u u u u u u u u u u u u u q _ xXxXxXxX",
"xXxXxXxXxX .m t p u u u u u u u u u u u u u u u u u u u u u u u u u u u u u u u u u u u u u u u u u u u u u u u t l #.xXxXxXxXxX",
"xXxXxXxXxXxX .G y u u u u u u u u u u u u u u u u u u u u u u u u u u u u u u u u u u u u u u u u u u u u u u 9 P O.xXxXxXxXxXxX",
"xXxXxXxXxXxXxXxXE V e u u u u u u u u u u u u u u u u u u u u u u u u u u u u u u u u u u u u u u u u u u e V [ xXxXxXxXxXxXxXxX",
"xXxXxXxXxXxXxXxXxX&.D M y u p u u u u u u u u u u u u u u u u u u u u u u u u u u u u u u u u u u p t e B n $.xXxXxXxXxXxXxXxXxX",
"xXxXxXxXxXxXxXxXxXxXxX| K G i e t h u u u u u u u u u u u u u u u u u u u u u u u u u u u u h t y p H R X.xXxXxXxXxXxXxXxXxXxXxX",
"xXxXxXxXxXxXxXxXxXxXxXxXxXxXo.A P s u 0 e h u u u u u u u u u u u u u u u u u u u u g r 0 u a L A { xXxXxXxXxXxXxXxXxXxXxXxXxXxX",
"xXxXxXxXxXxXxXxXxXxXxXxXxXxXxXxXxX~ A U Y k y a e e e u u u f h h f u u u e e e p y l P I S ) xXxXxXxXxXxXxXxXxXxXxXxXxXxXxXxXxX",
"xXxXxXxXxXxXxXxXxXxXxXxXxXxXxXxXxXxXxXxXxX` ' z v Q T G C B c s s c B V G Y Q n x _ ^ xXxXxXxXxXxXxXxXxXxXxXxXxXxXxXxXxXxXxXxXxX",
"xXxXxXxXxXxXxXxXxXxXxXxXxXxXxXxXxXxXxXxXxXxXxXxXxXxXxXxXh g / @.@.! xXxXxXxXxXxXxXxXxXxXxXxXxXxXxXxXxXxXxXxXxXxXxXxXxXxXxXxXxXxX",
"xXxXxXxXxXxXxXxXxXxXxXxXxXxXxXxXxXxXxXxXxXxXxXxXxXxXxXxXxXxXxXxXxXxXxXxXxXxXxXxXxXxXxXxXxXxXxXxXxXxXxXxXxXxXxXxXxXxXxXxXxXxXxXxX",
"xXxXxXxXxXxXxXxXxXxXxXxXxXxXxXxXxXxXxXxXxXxXxXxXxXxXxXxXxXxXxXxXxXxXxXxXxXxXxXxXxXxXxXxXxXxXxXxXxXxXxXxXxXxXxXxXxXxXxXxXxXxXxXxX",
"xXxXxXxXxXxXxXxXxXxXxXxXxXxXxXxXxXxXxXxXxXxXxXxXxXxXxXxXxXxXxXxXxXxXxXxXxXxXxXxXxXxXxXxXxXxXxXxXxXxXxXxXxXxXxXxXxXxXxXxXxXxXxXxX",
"xXxXxXxXxXxXxXxXxXxXxXxXxXxXxXxXxXxXxXxXxXxXxXxXxXxXxXxXxXxXxXxXxXxXxXxXxXxXxXxXxXxXxXxXxXxXxXxXxXxXxXxXxXxXxXxXxXxXxXxXxXxXxXxX",
"xXxXxXxXxXxXxXxXxXxXxXxXxXxXxXxXxXxXxXxXxXxXxXxXxXxXxXxXxXxXxXxXxXxXxXxXxXxXxXxXxXxXxXxXxXxXxXxXxXxXxXxXxXxXxXxXxXxXxXxXxXxXxXxX",
"xXxXxXxXxXxXxXxXxXxXxXxXxXxXxXxXxXxXxXxXxXxXxXxXxXxXxXxXxXxXxXxXxXxXxXxXxXxXxXxXxXxXxXxXxXxXxXxXxXxXxXxXxXxXxXxXxXxXxXxXxXxXxXxX",
"xXxXxXxXxXxXxXxXxXxXxXxXxXxXxXxXxXxXxXxXxXxXxXxXxXxXxXxXxXxXxXxXxXxXxXxXxXxXxXxXxXxXxXxXxXxXxXxXxXxXxXxXxXxXxXxXxXxXxXxXxXxXxXxX",
"xXxXxXxXxXxXxXxXxXxXxXxXxXxXxXxXxXxXxXxXxXxXxXxXxXxXxXxXxXxXxXxXxXxXxXxXxXxXxXxXxXxXxXxXxXxXxXxXxXxXxXxXxXxXxXxXxXxXxXxXxXxXxXxX",
"xXxXxXxXxXxXxXxXxXxXxXxXxXxXxXxXxXxXxXxXxXxXxXxXxXxXxXxXxXxXxXxXxXxXxXxXxXxXxXxXxXxXxXxXxXxXxXxXxXxXxXxXxXxXxXxXxXxXxXxXxXxXxXxX",
"xXxXxXxXxXxXxXxXxXxXxXxXxXxXxXxXxXxXxXxXxXxXxXxXxXxXxXxXxXxXxXxXxXxXxXxXxXxXxXxXxXxXxXxXxXxXxXxXxXxXxXxXxXxXxXxXxXxXxXxXxXxXxXxX",
"xXxXxXxXxXxXxXxXxXxXxXxXxXxXxXxXxXxXxXxXxXxXxXxXxXxXxXxXxXxXxXxXxXxXxXxXxXxXxXxXxXxXxXxXxXxXxXxXxXxXxXxXxXxXxXxXxXxXxXxXxXxXxXxX",
"xXxXxXxXxXxXxXxXxXxXxXxXxXxXxXxXxXxXxXxXxXxXxXxXxXxXxXxXxXxXxXxXxXxXxXxXxXxXxXxXxXxXxXxXxXxXxXxXxXxXxXxXxXxXxXxXxXxXxXxXxXxXxXxX",
"xXxXxXxXxXxXxXxXxXxXxXxXxXxXxXxXxXxXxXxXxXxXxXxXxXxXxXxXxXxXxXxXxXxXxXxXxXxXxXxXxXxXxXxXxXxXxXxXxXxXxXxXxXxXxXxXxXxXxXxXxXxXxXxX",
"xXxXxXxXxXxXxXxXxXxXxXxXxXxXxXxXxXxXxXxXxXxXxXxXxXxXxXxXxXxXxXxXxXxXxXxXxXxXxXxXxXxXxXxXxXxXxXxXxXxXxXxXxXxXxXxXxXxXxXxXxXxXxXxX"
};
