/* XPM */
static char *result[] = {
/* columns rows colors chars-per-pixel */
"64 64 55 1 ",
"  c #50302B",
". c #533C2E",
"X c #5E3D2F",
"o c #56412F",
"O c #58412F",
"+ c #544B2F",
"@ c #5A4230",
"# c #5E5533",
"$ c #555931",
"% c #614332",
"& c #634B33",
"* c #6A4D35",
"= c #665435",
"- c #6A5335",
"; c #645A35",
": c #6F5836",
"> c #705736",
", c #725B37",
"< c #755E38",
"1 c #456235",
"2 c #496535",
"3 c #4F6C35",
"4 c #546534",
"5 c #5C6335",
"6 c #536D36",
"7 c #596D36",
"8 c #547136",
"9 c #587537",
"0 c #567539",
"q c #5A7738",
"w c #5D7A39",
"e c #646436",
"r c #776039",
"t c #7A633A",
"y c #7E683B",
"u c #607638",
"i c #617E3A",
"p c #826C3D",
"a c #87713D",
"s c #5E803A",
"d c #65823B",
"f c #69863C",
"g c #66883F",
"h c #6C8A3D",
"j c #718E3F",
"k c #72903F",
"l c #638441",
"z c #6C8B41",
"x c #738E41",
"c c #6E9043",
"v c #759242",
"b c #799642",
"n c #7C9A43",
"m c #809E45",
"M c None",
/* pixels */
"MMMMMMMMMMMMMMMMMMMMMMMMMMMMqlqqlqMM0ll0MMMMMMMMMMMMMMMMMMMMMMMM",
"MMMMMMMMMMMMMMMMMMMMMMMMMMMMizlilwMMdzziMMMMMMMMMMMMMMMMMMMMMMMM",
"MMMMMMMMMMMMMMMMMMMMMM0q800lxbbxzdqivbbcl600MMMMMMMMMMMMMMMMMMMM",
"MMMMMMMMMMMMMMMMMMMMMMdczllzbmmbvzlzbmmbczcuMMMMMMMMMMMMMMMMMMMM",
"MMMMMMMMMMMMMMMMMMMM0ixnnvwibnbvxzdzvvbbvxxxw000MMMMMMMMMMMMMMMM",
"MMMMMMMMMMMMMMMMMMMM0xbmnbdixbxxxxxxxvbbbxxxzzviMMMMMMMMMMMMMMMM",
"MMMMMMMMMMMMMMMMMMq00lbmbxxzilxxxvxxxxbvvxxxxxbxl0MMMMMMMMMMMMMM",
"MMMMMMMMMMMMMMMMMMlxilxxxvvxiizxxxvxxxxxxvxxxbmbc0MMMMMMMMMMMMMM",
"MMMMMMMMMMMMMMMM0wzxxzilxxmxxxfxxxbxzffhxxxvvmmmc0MMMMMMMMMMMMMM",
"MMMMMMMMMMMMMMMMwbxvxxlizxxxxxffxxxxhdhzxxxvvmvxl0MMMMMMMMMMMMMM",
"MMMMMMMMMMMMMM0dxbvxxxxxaxxxzffffzzfhzixxvxxxxliwqq0MMMMMMMMMMMM",
"MMMMMMMMMMMMMM0vnmbxxxxvxxxxzffffffffymxvxxxxzleilclMMMMMMMMMMMM",
"MMMMMMMMMMMMMM0zbmnbzxxxxxxxxxxzzffihzxmxxmxxxxzzxbxl0MMMMMMMMMM",
"MMMMMMMMMMMMMM0zvbnvlzxxxvxvxvmxfffhixxxxvxxxxxxbbmbc0MMMMMMMMMM",
"MMMMMMMMMM88880dhxjxuixxxxvvxxvxffxxmxihxxxxxxxmbnnnc0MMMMMMMMMM",
"MMMMMMMMMMwzllwwifflilxxxxvxxxxxxzxxxxxhxxxvxxxvbnbxzqMMMMMMMMMM",
"MMMMMMMM89fhhfddww9fkbxxxvxxxxxxzxxxxxzxxxxxxxxvvxlul0MMMMMMMMMM",
"MMMMMMMM9hhjjhfsw98dbnbxjjxvvvvxamxxxxxmvxxvvvvvxciillMMMMMMMMMM",
"MMMMMMMM8dhkhhdddwwsbmnbfdkkbbxxxvxxmxxxxxxvbbkbxxcxbvl0MMMMMMMM",
"MMMMMMMM8sdfhhfdddwdzbbjuikkmbxzxxxxxxxvxxxxnbnnxxxbmnc0MMMMMMMM",
"MMMMMM88889shhhhhfdididw9dkmmkdsizxvxvxxvxzxkmmkilxnmncqMMMMMMMM",
"MMMMMMwzd99wdhhhhhfiwqqw9dkkkjs9ilzxxxxxxxiikkkkwixbbxl0MMMMMMMM",
"MMMM8whvhfdfhhhhfdddddiddsddfdsdififffxxvxiifhhfwqilziMMMMMMMMMM",
"MMMM8ckbkhhhhhhhdiidddddfsw9uudffidiiixxxziusddsiwqwl0MMMMMMMMMM",
"MMMM6gkbhhhhhhhhfiddddhfdiidfffffifififffddii9iiidddddw8MMMMMMMM",
"MMMM8ghkhkhhhhhhfdfddfhhffddhjjhfiififiidffdww9udddffdl8MMMMMMMM",
"MMMM8w9dhkhhhhhhfffffhhhhhfhhhhffifififffhhfdsidhhhffdd8MMMMMMMM",
"MMMMwd9skbhhhhhhjhjhjhhhhhhhhhfffiifffiihhhhdfffffhfdwd8MMMMMMMM",
"MM8whjffhkhhhhhhfjhhhhhhhhhhhhfdfifhhfiffhhhhhhhhhhf90w6MMMMMMMM",
"MM8cbbkhffhhhhhhjfhhhhhhhhhhffddifhhhhfffhhhhhhhhhhfdwgwMMMMMMMM",
"MM8zbbkkwwfhhhhhffjhhhhhhhhfu9ddffhhhhhfhhhhhhhhhhhkhkvhw8MMMMMM",
"MM8whvkhwwfhhhfffjfhhhhhhhhfsusdiifhhhhhhhhhhhhhhhhhjbbbz6MMMMMM",
"MMMMihsshkhhhfwufhhhhhhhhjhjkhi9ifdffhhhhhhhhhhhhhhhhkkkf773MMMM",
"MMMM683skkkhfsiifhhhhhhfffhkkk99ufdfhhhhhhhhhhhhhhhhhfkhsshdMMMM",
"MMMMMM6dkkkksikkhhhhhhhfuskkkk98ufffhhhhhhhhhhhhhhhhhfsssfkkw0MM",
"MMMMMM8fkkkf9ukkkhffhhkf99fkkkiudffjhhhhhhhhhhhhhhhhff9sfkkkc9MM",
"MMMM13uddiw98ukkkkdwfjkji89iiussdfhhhhdfhhhhhhhhhhhhhfffkbbvc8MM",
"MMMM8dddu8999ifkkh99hkkki6988usfddfhhffdfhhhhhhhhhhhhhhkhkkhw8MM",
"MM28dhdddisssswwi98wjkkki8iiiiiddddddffhhhhhhhhhhhhhhhhfiwgwMMMM",
"MM2lhhfddddfddw9989ijkkhw9ddfdddddddddhhhhhhhhhhhhhhhhhfi9w8MMMM",
"MM2lzhhhddddddffdiiiiuusdddhhhddfhhfdffhhhhhhhhhhhhhhhhhjhf8MMMM",
"MM28dhhdfddfddfffdfd9889dfhhhhhhhhhfdshhhhhhhhhhhhffhhhkbkg8MMMM",
"MMMM6l0wdhhfhf99fhhfsusdfhkkhhkkhhjfu9fhhhhhhhhhhfwwfkkkbkc8MMMM",
"MMMM2218fjhhffwwfhhhffffjkkkhhkkkhhdudfhhhhhhhhhhfw9fhcvbfw8MMMM",
"MMMMMM2lfkjhwwhkhhhhkkhhkknkwwjbkksshhhhhhhhhhfhhhjfdwddzwMMMMMM",
"MMMMMM26dffd8ukkkhffkkkjhjkh97fvkh99kkkhffhhhhffhkkkw66888MMMMMM",
"MMMMMMMM8dw99skmkkdfkmkkd9wq;;qws99sknkkdsfhkkddknnkz8MMMMMMMMMM",
"MMMMMMMM22233wjkkh99hkkh7245-=54$77uhkkh99fkkku9hkkkw8MMMMMMMMMM",
"MMMMMMMMMMMMMMqzzwMMqzli$+#=&-=;;;=ewsswwghbbvlwfgzwMMMMMMMMMMMM",
"MMMMMMMMMMMMMM3633MM3634oX*::--****=57646shbbhw88888MMMMMMMMMMMM",
"MMMMMMMMMMMMMMMMMMMMMMMMo*:<,,-**-*-;;#+MMwczwMMMMMMMMMMMMMMMMMM",
"MMMMMMMMMMMMMMMMMMMMMMMM@-<<t,:---=-**@ MM8888MMMMMMMMMMMMMMMMMM",
"MMMMMMMMMMMMMMMMMMMMMMMM@-<<<<<<,,-=-&&.MMMMMMMMMMMMMMMMMMMMMMMM",
"MMMMMMMMMMMMMMMMMMMMMMMM@-<<<<<<r<>---&.MMMMMMMMMMMMMMMMMMMMMMMM",
"MMMMMMMMMMMMMMMMMMMMMMMM@-<<<<<<<<,,<>-OMMMMMMMMMMMMMMMMMMMMMMMM",
"MMMMMMMMMMMMMMMMMMMMMMMM@-<<<<<<<<r<t,-@MMMMMMMMMMMMMMMMMMMMMMMM",
"MMMMMMMMMMMMMMMMMMMMMMMMO-,rrrr,<<<rr,-@MMMMMMMMMMMMMMMMMMMMMMMM",
"MMMMMMMMMMMMMMMMMMMMMMMMO-,r,,rr<<<<r,-@MMMMMMMMMMMMMMMMMMMMMMMM",
"MMMMMMMMMMMMMMMMMMMMMM@X.*:rrrr,rr<<<,&.XoMMMMMMMMMMMMMMMMMMMMMM",
"MMMMMMMMMMMMMMMMMMMMMM&<==,r,rrr,:<<<,-=<&MMMMMMMMMMMMMMMMMMMMMM",
"MMMMMMMMMMMMMMMMMMMM.&<pyy<<rtyt=@,t<ttyp<&.MMMMMMMMMMMMMMMMMMMM",
"MMMMMMMMMMMMMMMMMMMM&tpapy<::ryy-*:,,<ypapt&MMMMMMMMMMMMMMMMMMMM",
"MMMMMMMMMMMMMMMMMM.*,pppy,-@&-,tyr-@@*<yppp<=.MMMMMMMMMMMMMMMMMM",
"MMMMMMMMMMMMMMMMMMo<pappr:&OO@:ray=oO&-tpppp<@MMMMMMMMMMMMMMMMMM"
};
